<mxfile host="app.diagrams.net" agent="Mozilla/5.0 (Windows NT 10.0; Win64; x64) AppleWebKit/537.36 (KHTML, like Gecko) Chrome/141.0.0.0 Safari/537.36" version="28.2.7">
  <diagram name="Pagina-1" id="vaO9rsZ89hNLdOzZP8Mm">
    <mxGraphModel dx="2693" dy="2292" grid="1" gridSize="10" guides="1" tooltips="1" connect="1" arrows="1" fold="1" page="1" pageScale="1" pageWidth="827" pageHeight="1169" math="0" shadow="0">
      <root>
        <mxCell id="0" />
        <mxCell id="1" parent="0" />
        <mxCell id="G4o3Q2nPYuQcVR1AD72y-1" value="" style="rounded=0;whiteSpace=wrap;html=1;" vertex="1" parent="1">
          <mxGeometry x="100" y="-294" width="220" height="304" as="geometry" />
        </mxCell>
        <mxCell id="G4o3Q2nPYuQcVR1AD72y-2" value="" style="rounded=0;whiteSpace=wrap;html=1;fontSize=18;fontStyle=1" vertex="1" parent="1">
          <mxGeometry x="210" y="322" width="240" height="488" as="geometry" />
        </mxCell>
        <mxCell id="G4o3Q2nPYuQcVR1AD72y-3" value="" style="rounded=0;whiteSpace=wrap;html=1;fontSize=17;" vertex="1" parent="1">
          <mxGeometry x="135" y="-170" width="150" height="144" as="geometry" />
        </mxCell>
        <mxCell id="G4o3Q2nPYuQcVR1AD72y-4" value=".NET App" style="rounded=0;whiteSpace=wrap;html=1;fontSize=17;" vertex="1" parent="1">
          <mxGeometry x="150" y="-152.5" width="120" height="30" as="geometry" />
        </mxCell>
        <mxCell id="G4o3Q2nPYuQcVR1AD72y-5" value="node_exporter" style="rounded=0;whiteSpace=wrap;html=1;fontSize=17;" vertex="1" parent="1">
          <mxGeometry x="150" y="-110" width="120" height="30" as="geometry" />
        </mxCell>
        <mxCell id="G4o3Q2nPYuQcVR1AD72y-7" value="&lt;br&gt;&lt;div style=&quot;&quot;&gt;&lt;span style=&quot;background-color: initial;&quot;&gt;&lt;font style=&quot;font-size: 18px;&quot;&gt;AppServerVM&lt;/font&gt;&lt;/span&gt;&lt;/div&gt;" style="text;strokeColor=none;fillColor=none;html=1;fontSize=24;fontStyle=1;verticalAlign=middle;align=center;" vertex="1" parent="1">
          <mxGeometry x="160" y="-309" width="100" height="40" as="geometry" />
        </mxCell>
        <mxCell id="G4o3Q2nPYuQcVR1AD72y-8" value="Prometheus" style="rounded=0;whiteSpace=wrap;html=1;fontSize=17;" vertex="1" parent="1">
          <mxGeometry x="251.25" y="476.5" width="120" height="30" as="geometry" />
        </mxCell>
        <mxCell id="G4o3Q2nPYuQcVR1AD72y-9" value="Grafana" style="rounded=0;whiteSpace=wrap;html=1;fontSize=17;" vertex="1" parent="1">
          <mxGeometry x="248.75" y="530" width="120" height="30" as="geometry" />
        </mxCell>
        <mxCell id="G4o3Q2nPYuQcVR1AD72y-10" value="" style="rounded=0;whiteSpace=wrap;html=1;fontSize=18;" vertex="1" parent="1">
          <mxGeometry x="1210" y="-227.5" width="200" height="146.5" as="geometry" />
        </mxCell>
        <mxCell id="G4o3Q2nPYuQcVR1AD72y-11" value="GitHub" style="text;strokeColor=none;fillColor=none;html=1;fontSize=15;fontStyle=1;verticalAlign=middle;align=center;" vertex="1" parent="1">
          <mxGeometry x="1257" y="-220" width="100" height="40" as="geometry" />
        </mxCell>
        <mxCell id="G4o3Q2nPYuQcVR1AD72y-12" value="" style="rounded=0;whiteSpace=wrap;html=1;fontSize=15;" vertex="1" parent="1">
          <mxGeometry x="226.25" y="645" width="190" height="96" as="geometry" />
        </mxCell>
        <mxCell id="G4o3Q2nPYuQcVR1AD72y-13" value="RepoDotNet" style="rounded=0;whiteSpace=wrap;html=1;fontSize=17;" vertex="1" parent="1">
          <mxGeometry x="1239.5" y="-180" width="135" height="30" as="geometry" />
        </mxCell>
        <mxCell id="G4o3Q2nPYuQcVR1AD72y-14" value="RepoOperations" style="rounded=0;whiteSpace=wrap;html=1;fontSize=17;" vertex="1" parent="1">
          <mxGeometry x="1239.5" y="-134" width="135" height="30" as="geometry" />
        </mxCell>
        <mxCell id="G4o3Q2nPYuQcVR1AD72y-15" style="edgeStyle=orthogonalEdgeStyle;rounded=0;orthogonalLoop=1;jettySize=auto;html=1;fontSize=12;fillColor=#dae8fc;strokeColor=light-dark(#6c8ebf, #e01b24);entryX=-0.002;entryY=0.128;entryDx=0;entryDy=0;entryPerimeter=0;" edge="1" parent="1" source="G4o3Q2nPYuQcVR1AD72y-16" target="G4o3Q2nPYuQcVR1AD72y-1">
          <mxGeometry relative="1" as="geometry">
            <mxPoint x="82" y="-274" as="targetPoint" />
          </mxGeometry>
        </mxCell>
        <mxCell id="G4o3Q2nPYuQcVR1AD72y-16" value="Client" style="shape=umlActor;verticalLabelPosition=bottom;verticalAlign=top;html=1;outlineConnect=0;fontSize=12;" vertex="1" parent="1">
          <mxGeometry x="-60" y="625" width="30" height="60" as="geometry" />
        </mxCell>
        <mxCell id="G4o3Q2nPYuQcVR1AD72y-17" style="edgeStyle=orthogonalEdgeStyle;rounded=0;orthogonalLoop=1;jettySize=auto;html=1;entryX=0;entryY=0.5;entryDx=0;entryDy=0;fontSize=12;fillColor=#dae8fc;strokeColor=#6c8ebf;" edge="1" parent="1" source="G4o3Q2nPYuQcVR1AD72y-19" target="G4o3Q2nPYuQcVR1AD72y-2">
          <mxGeometry relative="1" as="geometry">
            <Array as="points">
              <mxPoint x="-20" y="113" />
              <mxPoint x="-20" y="440" />
            </Array>
          </mxGeometry>
        </mxCell>
        <mxCell id="G4o3Q2nPYuQcVR1AD72y-18" style="edgeStyle=orthogonalEdgeStyle;rounded=0;orthogonalLoop=1;jettySize=auto;html=1;entryX=0.003;entryY=0.438;entryDx=0;entryDy=0;entryPerimeter=0;fontSize=12;fillColor=#dae8fc;strokeColor=#6c8ebf;" edge="1" parent="1" source="G4o3Q2nPYuQcVR1AD72y-19" target="G4o3Q2nPYuQcVR1AD72y-1">
          <mxGeometry relative="1" as="geometry" />
        </mxCell>
        <mxCell id="G4o3Q2nPYuQcVR1AD72y-19" value="ops" style="shape=umlActor;verticalLabelPosition=bottom;verticalAlign=top;html=1;outlineConnect=0;fontSize=12;" vertex="1" parent="1">
          <mxGeometry x="-180" y="-39" width="30" height="181.5" as="geometry" />
        </mxCell>
        <mxCell id="G4o3Q2nPYuQcVR1AD72y-20" style="edgeStyle=orthogonalEdgeStyle;curved=1;rounded=0;orthogonalLoop=1;jettySize=auto;html=1;entryX=0.5;entryY=1;entryDx=0;entryDy=0;fontSize=12;fillColor=#e1d5e7;strokeColor=#9673a6;" edge="1" parent="1" source="G4o3Q2nPYuQcVR1AD72y-22" target="G4o3Q2nPYuQcVR1AD72y-10">
          <mxGeometry relative="1" as="geometry" />
        </mxCell>
        <mxCell id="G4o3Q2nPYuQcVR1AD72y-21" style="edgeStyle=orthogonalEdgeStyle;curved=1;rounded=0;orthogonalLoop=1;jettySize=auto;html=1;entryX=1;entryY=0.5;entryDx=0;entryDy=0;fontSize=12;fillColor=#e1d5e7;strokeColor=#9673a6;" edge="1" parent="1" source="G4o3Q2nPYuQcVR1AD72y-22" target="G4o3Q2nPYuQcVR1AD72y-9">
          <mxGeometry relative="1" as="geometry">
            <Array as="points">
              <mxPoint x="713" y="615" />
              <mxPoint x="713" y="545" />
            </Array>
          </mxGeometry>
        </mxCell>
        <mxCell id="G4o3Q2nPYuQcVR1AD72y-22" value="dev" style="shape=umlActor;verticalLabelPosition=bottom;verticalAlign=top;html=1;outlineConnect=0;fontSize=12;" vertex="1" parent="1">
          <mxGeometry x="955" y="585" width="30" height="60" as="geometry" />
        </mxCell>
        <mxCell id="G4o3Q2nPYuQcVR1AD72y-23" value="" style="rounded=0;whiteSpace=wrap;html=1;" vertex="1" parent="1">
          <mxGeometry x="360" y="-294" width="220" height="306" as="geometry" />
        </mxCell>
        <mxCell id="G4o3Q2nPYuQcVR1AD72y-24" value="" style="rounded=0;whiteSpace=wrap;html=1;fontSize=17;" vertex="1" parent="1">
          <mxGeometry x="390" y="-170" width="160" height="160" as="geometry" />
        </mxCell>
        <mxCell id="G4o3Q2nPYuQcVR1AD72y-25" value="&lt;font style=&quot;font-size: 12px;&quot;&gt;sql server(provider tbd)&lt;/font&gt;" style="rounded=0;whiteSpace=wrap;html=1;fontSize=17;" vertex="1" parent="1">
          <mxGeometry x="416" y="-150" width="123" height="30" as="geometry" />
        </mxCell>
        <mxCell id="G4o3Q2nPYuQcVR1AD72y-26" value="node_exporter" style="rounded=0;whiteSpace=wrap;html=1;fontSize=17;" vertex="1" parent="1">
          <mxGeometry x="416" y="-110" width="120" height="30" as="geometry" />
        </mxCell>
        <mxCell id="G4o3Q2nPYuQcVR1AD72y-27" value="sql_exporter" style="rounded=0;whiteSpace=wrap;html=1;fontSize=17;" vertex="1" parent="1">
          <mxGeometry x="416" y="-67.5" width="120" height="30" as="geometry" />
        </mxCell>
        <mxCell id="G4o3Q2nPYuQcVR1AD72y-28" value="Ansible" style="rounded=0;whiteSpace=wrap;html=1;fontSize=17;" vertex="1" parent="1">
          <mxGeometry x="248.75" y="575" width="120" height="30" as="geometry" />
        </mxCell>
        <mxCell id="G4o3Q2nPYuQcVR1AD72y-30" value="" style="curved=1;endArrow=classic;html=1;rounded=0;exitX=0;exitY=0.5;exitDx=0;exitDy=0;entryX=0;entryY=0.66;entryDx=0;entryDy=0;entryPerimeter=0;" edge="1" parent="1" source="G4o3Q2nPYuQcVR1AD72y-28" target="G4o3Q2nPYuQcVR1AD72y-1">
          <mxGeometry width="50" height="50" relative="1" as="geometry">
            <mxPoint x="680" y="250" as="sourcePoint" />
            <mxPoint x="95" y="-102" as="targetPoint" />
            <Array as="points">
              <mxPoint x="130" y="543" />
              <mxPoint x="4" y="532" />
              <mxPoint y="-20" />
              <mxPoint y="-60" />
              <mxPoint x="20" y="-102" />
            </Array>
          </mxGeometry>
        </mxCell>
        <mxCell id="G4o3Q2nPYuQcVR1AD72y-31" value="" style="curved=1;endArrow=classic;html=1;rounded=0;exitX=1;exitY=0.5;exitDx=0;exitDy=0;entryX=0.702;entryY=0.991;entryDx=0;entryDy=0;entryPerimeter=0;" edge="1" parent="1" source="G4o3Q2nPYuQcVR1AD72y-28" target="G4o3Q2nPYuQcVR1AD72y-23">
          <mxGeometry width="50" height="50" relative="1" as="geometry">
            <mxPoint x="650" y="260" as="sourcePoint" />
            <mxPoint x="700" y="210" as="targetPoint" />
            <Array as="points">
              <mxPoint x="537" y="524" />
              <mxPoint x="510" y="260" />
            </Array>
          </mxGeometry>
        </mxCell>
        <mxCell id="G4o3Q2nPYuQcVR1AD72y-32" value="&lt;br&gt;&lt;div&gt;&lt;font style=&quot;font-size: 18px;&quot;&gt;Database&lt;/font&gt;&lt;/div&gt;" style="text;strokeColor=none;fillColor=none;html=1;fontSize=24;fontStyle=1;verticalAlign=middle;align=center;" vertex="1" parent="1">
          <mxGeometry x="420" y="-309" width="100" height="40" as="geometry" />
        </mxCell>
        <mxCell id="G4o3Q2nPYuQcVR1AD72y-33" style="edgeStyle=orthogonalEdgeStyle;curved=1;rounded=0;orthogonalLoop=1;jettySize=auto;html=1;entryX=1;entryY=0.5;entryDx=0;entryDy=0;fontSize=12;fillColor=#fff2cc;strokeColor=#d6b656;exitX=0;exitY=0.5;exitDx=0;exitDy=0;" edge="1" parent="1" source="G4o3Q2nPYuQcVR1AD72y-13" target="G4o3Q2nPYuQcVR1AD72y-37">
          <mxGeometry relative="1" as="geometry">
            <mxPoint x="985" y="232.5" as="sourcePoint" />
            <mxPoint x="1222" y="12.5" as="targetPoint" />
            <Array as="points">
              <mxPoint x="1110" y="-165" />
              <mxPoint x="1110" y="58" />
            </Array>
          </mxGeometry>
        </mxCell>
        <mxCell id="G4o3Q2nPYuQcVR1AD72y-34" value="&lt;div style=&quot;&quot;&gt;&lt;span style=&quot;background-color: initial;&quot;&gt;&lt;font style=&quot;font-size: 14px;&quot;&gt;Monitoring&lt;br&gt;&amp;amp; BuildServerVM&lt;/font&gt;&lt;/span&gt;&lt;/div&gt;" style="text;strokeColor=none;fillColor=none;html=1;fontSize=24;fontStyle=1;verticalAlign=middle;align=center;" vertex="1" parent="1">
          <mxGeometry x="270" y="330" width="91.25" height="30" as="geometry" />
        </mxCell>
        <mxCell id="G4o3Q2nPYuQcVR1AD72y-35" style="edgeStyle=orthogonalEdgeStyle;curved=1;rounded=0;orthogonalLoop=1;jettySize=auto;html=1;fontSize=12;fillColor=#d5e8d4;strokeColor=#82b366;exitX=0;exitY=0.5;exitDx=0;exitDy=0;entryX=0;entryY=0.5;entryDx=0;entryDy=0;" edge="1" parent="1" source="G4o3Q2nPYuQcVR1AD72y-5" target="G4o3Q2nPYuQcVR1AD72y-8">
          <mxGeometry relative="1" as="geometry">
            <mxPoint x="70" y="360" as="sourcePoint" />
            <mxPoint x="328" y="100" as="targetPoint" />
            <Array as="points">
              <mxPoint x="50" y="-95" />
              <mxPoint x="50" y="491" />
              <mxPoint x="155" y="491" />
            </Array>
          </mxGeometry>
        </mxCell>
        <mxCell id="G4o3Q2nPYuQcVR1AD72y-37" value=".NET Pipeline&lt;br&gt;&lt;div&gt;linting etc&lt;/div&gt;&lt;div&gt;&lt;br&gt;&lt;/div&gt;" style="rounded=0;whiteSpace=wrap;html=1;fontSize=17;" vertex="1" parent="1">
          <mxGeometry x="253.75" y="673.75" width="135" height="38.5" as="geometry" />
        </mxCell>
        <mxCell id="G4o3Q2nPYuQcVR1AD72y-38" value="Jenkins" style="text;strokeColor=none;fillColor=none;html=1;fontSize=12;fontStyle=0;verticalAlign=middle;align=center;" vertex="1" parent="1">
          <mxGeometry x="271.25" y="617" width="100" height="40" as="geometry" />
        </mxCell>
        <mxCell id="G4o3Q2nPYuQcVR1AD72y-39" style="edgeStyle=orthogonalEdgeStyle;rounded=0;orthogonalLoop=1;jettySize=auto;html=1;entryX=0.5;entryY=0;entryDx=0;entryDy=0;fontSize=12;fillColor=#d5e8d4;strokeColor=#82b366;exitX=0.5;exitY=1;exitDx=0;exitDy=0;" edge="1" parent="1" source="G4o3Q2nPYuQcVR1AD72y-8" target="G4o3Q2nPYuQcVR1AD72y-9">
          <mxGeometry relative="1" as="geometry">
            <mxPoint x="441" y="440" as="sourcePoint" />
            <mxPoint x="440" y="409" as="targetPoint" />
          </mxGeometry>
        </mxCell>
        <mxCell id="G4o3Q2nPYuQcVR1AD72y-40" style="edgeStyle=orthogonalEdgeStyle;curved=1;rounded=0;orthogonalLoop=1;jettySize=auto;html=1;entryX=1;entryY=0.5;entryDx=0;entryDy=0;fontSize=12;fillColor=#fff2cc;strokeColor=#d6b656;" edge="1" parent="1" source="G4o3Q2nPYuQcVR1AD72y-37" target="G4o3Q2nPYuQcVR1AD72y-4">
          <mxGeometry relative="1" as="geometry">
            <Array as="points">
              <mxPoint x="341" y="58" />
              <mxPoint x="341" y="-137" />
            </Array>
          </mxGeometry>
        </mxCell>
        <mxCell id="G4o3Q2nPYuQcVR1AD72y-41" value="" style="curved=1;endArrow=classic;html=1;rounded=0;entryX=1;entryY=0.5;entryDx=0;entryDy=0;exitX=0;exitY=0.5;exitDx=0;exitDy=0;fillColor=#dae8fc;strokeColor=#6c8ebf;" edge="1" parent="1" source="G4o3Q2nPYuQcVR1AD72y-25" target="G4o3Q2nPYuQcVR1AD72y-4">
          <mxGeometry width="50" height="50" relative="1" as="geometry">
            <mxPoint x="285" y="92.5" as="sourcePoint" />
            <mxPoint x="335" y="42.5" as="targetPoint" />
            <Array as="points" />
          </mxGeometry>
        </mxCell>
        <mxCell id="G4o3Q2nPYuQcVR1AD72y-43" value="" style="curved=1;endArrow=classic;html=1;rounded=0;entryX=1;entryY=0.5;entryDx=0;entryDy=0;fillColor=#d5e8d4;strokeColor=#82b366;exitX=1;exitY=0.5;exitDx=0;exitDy=0;" edge="1" parent="1" source="G4o3Q2nPYuQcVR1AD72y-27" target="G4o3Q2nPYuQcVR1AD72y-8">
          <mxGeometry width="50" height="50" relative="1" as="geometry">
            <mxPoint x="750" y="240" as="sourcePoint" />
            <mxPoint x="911" y="308" as="targetPoint" />
            <Array as="points">
              <mxPoint x="620" y="-40" />
              <mxPoint x="630" y="90" />
              <mxPoint x="630" y="371" />
            </Array>
          </mxGeometry>
        </mxCell>
        <mxCell id="G4o3Q2nPYuQcVR1AD72y-45" value="blazer .NET" style="rounded=0;whiteSpace=wrap;html=1;fontSize=17;" vertex="1" parent="1">
          <mxGeometry x="150" y="-70" width="120" height="30" as="geometry" />
        </mxCell>
        <mxCell id="G4o3Q2nPYuQcVR1AD72y-46" value="&lt;font style=&quot;font-size: 18px;&quot;&gt;&lt;b&gt;VIC&lt;/b&gt;&lt;/font&gt;&lt;div&gt;&lt;br&gt;&lt;/div&gt;&lt;div&gt;&lt;b style=&quot;font-size: 18px; background-color: initial;&quot;&gt;Lokaal&lt;/b&gt;&lt;br&gt;&lt;/div&gt;" style="text;html=1;align=center;verticalAlign=middle;whiteSpace=wrap;rounded=0;" vertex="1" parent="1">
          <mxGeometry x="370" y="-242" width="60" height="63" as="geometry" />
        </mxCell>
        <mxCell id="G4o3Q2nPYuQcVR1AD72y-47" style="edgeStyle=orthogonalEdgeStyle;rounded=0;orthogonalLoop=1;jettySize=auto;html=1;exitX=0.5;exitY=1;exitDx=0;exitDy=0;" edge="1" parent="1" source="G4o3Q2nPYuQcVR1AD72y-46" target="G4o3Q2nPYuQcVR1AD72y-46">
          <mxGeometry relative="1" as="geometry" />
        </mxCell>
        <mxCell id="G4o3Q2nPYuQcVR1AD72y-48" value="&lt;div&gt;&lt;span style=&quot;font-size: 14px;&quot;&gt;&lt;b&gt;192.168.1.11&lt;/b&gt;&lt;/span&gt;&lt;/div&gt;" style="text;html=1;align=center;verticalAlign=middle;whiteSpace=wrap;rounded=0;" vertex="1" parent="1">
          <mxGeometry x="476" y="-206" width="60" height="30" as="geometry" />
        </mxCell>
        <mxCell id="G4o3Q2nPYuQcVR1AD72y-49" value="&lt;font style=&quot;font-size: 18px;&quot;&gt;&lt;b&gt;VIC&lt;/b&gt;&lt;/font&gt;&lt;div&gt;&lt;br&gt;&lt;/div&gt;&lt;div&gt;&lt;b style=&quot;font-size: 18px; background-color: initial;&quot;&gt;Lokaal&lt;/b&gt;&lt;br&gt;&lt;/div&gt;" style="text;html=1;align=center;verticalAlign=middle;whiteSpace=wrap;rounded=0;" vertex="1" parent="1">
          <mxGeometry x="108" y="-244" width="60" height="67" as="geometry" />
        </mxCell>
        <mxCell id="G4o3Q2nPYuQcVR1AD72y-51" value="&lt;span style=&quot;font-size: 14px;&quot;&gt;&lt;b&gt;192.168.1.10&lt;/b&gt;&lt;/span&gt;" style="text;html=1;align=center;verticalAlign=middle;whiteSpace=wrap;rounded=0;" vertex="1" parent="1">
          <mxGeometry x="225" y="-206" width="60" height="30" as="geometry" />
        </mxCell>
        <mxCell id="G4o3Q2nPYuQcVR1AD72y-53" value="&lt;font style=&quot;font-size: 18px;&quot;&gt;&lt;b&gt;VIC&lt;/b&gt;&lt;/font&gt;&lt;div&gt;&lt;br&gt;&lt;/div&gt;&lt;div&gt;&lt;b style=&quot;font-size: 18px; background-color: initial;&quot;&gt;Lokaal&lt;/b&gt;&lt;br&gt;&lt;/div&gt;" style="text;html=1;align=center;verticalAlign=middle;whiteSpace=wrap;rounded=0;" vertex="1" parent="1">
          <mxGeometry x="217" y="360" width="60" height="67" as="geometry" />
        </mxCell>
        <mxCell id="G4o3Q2nPYuQcVR1AD72y-54" value="&lt;span style=&quot;font-size: 14px;&quot;&gt;&lt;b&gt;192.168.1.12&lt;/b&gt;&lt;/span&gt;" style="text;html=1;align=center;verticalAlign=middle;whiteSpace=wrap;rounded=0;" vertex="1" parent="1">
          <mxGeometry x="308.75" y="397" width="60" height="30" as="geometry" />
        </mxCell>
        <mxCell id="G4o3Q2nPYuQcVR1AD72y-55" value="" style="curved=1;endArrow=classic;html=1;rounded=0;entryX=1;entryY=0.5;entryDx=0;entryDy=0;fillColor=#d5e8d4;strokeColor=#82b366;exitX=1;exitY=0.5;exitDx=0;exitDy=0;" edge="1" parent="1" source="G4o3Q2nPYuQcVR1AD72y-26" target="G4o3Q2nPYuQcVR1AD72y-8">
          <mxGeometry width="50" height="50" relative="1" as="geometry">
            <mxPoint x="546" y="-42" as="sourcePoint" />
            <mxPoint x="380" y="451" as="targetPoint" />
            <Array as="points">
              <mxPoint x="634" y="-87" />
              <mxPoint x="640" y="100" />
              <mxPoint x="660" y="437" />
            </Array>
          </mxGeometry>
        </mxCell>
        <mxCell id="G4o3Q2nPYuQcVR1AD72y-56" value="node_exporter" style="rounded=0;whiteSpace=wrap;html=1;fontSize=17;" vertex="1" parent="1">
          <mxGeometry x="248.75" y="432" width="120" height="30" as="geometry" />
        </mxCell>
        <mxCell id="G4o3Q2nPYuQcVR1AD72y-57" style="edgeStyle=orthogonalEdgeStyle;rounded=0;orthogonalLoop=1;jettySize=auto;html=1;fontSize=12;fillColor=#d5e8d4;strokeColor=#82b366;exitX=0.496;exitY=0.943;exitDx=0;exitDy=0;exitPerimeter=0;entryX=0.473;entryY=0.024;entryDx=0;entryDy=0;entryPerimeter=0;" edge="1" parent="1" source="G4o3Q2nPYuQcVR1AD72y-56" target="G4o3Q2nPYuQcVR1AD72y-8">
          <mxGeometry relative="1" as="geometry">
            <mxPoint x="321" y="497" as="sourcePoint" />
            <mxPoint x="309" y="457" as="targetPoint" />
          </mxGeometry>
        </mxCell>
        <mxCell id="G4o3Q2nPYuQcVR1AD72y-58" style="edgeStyle=orthogonalEdgeStyle;rounded=0;orthogonalLoop=1;jettySize=auto;html=1;exitX=0.5;exitY=1;exitDx=0;exitDy=0;" edge="1" parent="1" source="G4o3Q2nPYuQcVR1AD72y-12" target="G4o3Q2nPYuQcVR1AD72y-12">
          <mxGeometry relative="1" as="geometry" />
        </mxCell>
      </root>
    </mxGraphModel>
  </diagram>
</mxfile>
